# xmcd CD database file
#
# Track frame offsets:
#       150
#       15877
#       35790
#       49761
#       62938
#       86035
#       97267
#       112637
#       122914
#       141396
#       151329
#
# Disc length: 2718 seconds
#
# Revision: 0
# Processed by: cddbd v1.5.2PL0 Copyright (c) Steve Scherf et al.
# Submitted via: jack 3.1.1
#
DISCID=930a9c0b
DTITLE=Delaware Rage - The Rag
DYEAR=2007
DGENRE=bluegrass
TTITLE0=Hamar Girls
TTITLE1=Grovetown
TTITLE2=Playing the Ingénue
TTITLE3=Beaufort on my Mind
TTITLE4=So Blind
TTITLE5=Georgia Pecans
TTITLE6=Old Lady Blues
TTITLE7=Toe the Line
TTITLE8=Empty Road
TTITLE9=Too Little Too Late
TTITLE10=Silver Dollar
EXTD=
EXTT0=
EXTT1=
EXTT2=
EXTT3=
EXTT4=
EXTT5=
EXTT6=
EXTT7=
EXTT8=
EXTT9=
EXTT10=
PLAYORDER=
